<?xml version="1.0" encoding="utf-8"?>
<!-- Generator: Adobe Illustrator 24.1.2, SVG Export Plug-In . SVG Version: 6.00 Build 0)  -->
<svg version="1.1" id="Слой_1" xmlns="http://www.w3.org/2000/svg" xmlns:xlink="http://www.w3.org/1999/xlink" x="0px" y="0px"
	 viewBox="0 0 301.2 54.4" style="enable-background:new 0 0 301.2 54.4;" xml:space="preserve">
<style type="text/css">
	.st0{enable-background:new    ;}
</style>
<g class="st0">
	<path d="M17,15.3H8.3V9.1h24.9v6.1h-8.9v26.2H17V15.3z"/>
	<path d="M36.2,7.4h7.3v13.4h0.1c0.8-1,1.7-1.8,2.9-2.4c1.1-0.6,2.4-0.9,3.8-0.9c4.7,0,8.2,3.2,8.2,10.3v13.7h-7.3V28.6
		c0-3.1-1.1-5.2-3.8-5.2c-1.9,0-3.1,1.2-3.7,2.6c-0.2,0.4-0.2,1.1-0.2,1.6v13.9h-7.3V7.4z"/>
	<path d="M70,32.1c0.2,3,3.2,4.5,6.6,4.5c2.5,0,4.5-0.3,6.5-1l1,4.9c-2.4,1-5.4,1.5-8.5,1.5c-8,0-12.5-4.6-12.5-12
		c0-6,3.7-12.6,11.8-12.6c7.6,0,10.5,5.9,10.5,11.7c0,1.3-0.1,2.4-0.3,2.9H70z M78.6,27.1c0-1.8-0.8-4.8-4.1-4.8
		c-3.1,0-4.3,2.8-4.5,4.8H78.6z"/>
	<path d="M118.9,27.8H107v7.7h13.3v6H99.7V9.1h19.9v6H107v6.7h11.9V27.8z"/>
	<path d="M140.3,38.5h-0.1c-1.5,2.2-3.8,3.5-7,3.5c-5.1,0-9.7-4.5-9.7-12c0-8.4,5.4-12.6,10.4-12.6c3,0,5.2,1.1,6.5,3.3l0.1,0
		l0.2-2.8h7.1c-0.1,2.3-0.2,4.6-0.2,7.1V51h-7.3V38.5z M140.3,27.8c0-0.4,0-0.8-0.1-1.2c-0.4-1.9-2-3.5-4.2-3.5c-3.3,0-5,2.8-5,6.6
		c0,3.9,1.9,6.5,5,6.5c2.1,0,3.7-1.4,4.2-3.3c0.1-0.5,0.2-1.1,0.2-1.6V27.8z"/>
	<path d="M175.5,34c0,3.1,0.1,5.6,0.2,7.5h-6.3l-0.3-3.3h-0.2c-0.9,1.5-3.1,3.8-7.3,3.8c-4.8,0-8.3-3-8.3-10.2V18h7.3v12.6
		c0,3.4,1.1,5.5,3.7,5.5c2,0,3.2-1.4,3.6-2.6c0.2-0.4,0.3-1,0.3-1.6V18h7.3V34z"/>
	<path d="M194.7,41.5l-0.4-2.3h-0.2c-1.5,1.9-3.9,2.9-6.7,2.9c-4.8,0-7.6-3.4-7.6-7.2c0-6.1,5.5-9,13.8-9v-0.3c0-1.2-0.7-3-4.3-3
		c-2.4,0-4.9,0.8-6.5,1.8l-1.3-4.7c1.6-0.9,4.8-2.1,9.1-2.1c7.8,0,10.3,4.6,10.3,10.1v8.2c0,2.2,0.1,4.4,0.4,5.7H194.7z M193.9,30.4
		c-3.8,0-6.8,0.9-6.8,3.7c0,1.9,1.2,2.8,2.9,2.8c1.8,0,3.3-1.2,3.8-2.7c0.1-0.4,0.1-0.8,0.1-1.2V30.4z"/>
	<path d="M206.7,7.4h7.3v34.1h-7.3V7.4z"/>
	<path d="M227.4,11.5c0,2-1.5,3.6-3.9,3.6c-2.3,0-3.8-1.6-3.8-3.6c0-2.1,1.5-3.7,3.9-3.7C225.9,7.8,227.4,9.4,227.4,11.5z
		 M219.9,41.5V18h7.3v23.5H219.9z"/>
	<path d="M231.2,37.3l7.4-9.3c1.3-1.6,2.4-2.7,3.7-4.2v-0.1H232V18h19.2l0,4.4l-7.1,8.9c-1.3,1.5-2.5,3-3.8,4.3v0.1h11.3v5.8h-20.4
		V37.3z"/>
	<path d="M260.9,32.1c0.2,3,3.2,4.5,6.6,4.5c2.5,0,4.5-0.3,6.5-1l1,4.9c-2.4,1-5.4,1.5-8.5,1.5c-8,0-12.5-4.6-12.5-12
		c0-6,3.7-12.6,11.8-12.6c7.6,0,10.5,5.9,10.5,11.7c0,1.3-0.1,2.4-0.3,2.9H260.9z M269.5,27.1c0-1.8-0.8-4.8-4.1-4.8
		c-3.1,0-4.3,2.8-4.5,4.8H269.5z"/>
	<path d="M280.6,25.7c0-3.4-0.1-5.7-0.2-7.7h6.3l0.3,4.3h0.2c1.2-3.4,4.1-4.9,6.3-4.9c0.7,0,1,0,1.6,0.1v6.9c-0.6-0.1-1.2-0.2-2-0.2
		c-2.7,0-4.5,1.4-5,3.7c-0.1,0.5-0.1,1-0.1,1.6v11.9h-7.3V25.7z"/>
</g>
</svg>
