<?xml version="1.0" encoding="utf-8"?>
<!-- Generator: Adobe Illustrator 24.1.2, SVG Export Plug-In . SVG Version: 6.00 Build 0)  -->
<svg version="1.1" id="Слой_1" xmlns="http://www.w3.org/2000/svg" xmlns:xlink="http://www.w3.org/1999/xlink" x="0px" y="0px"
	 viewBox="0 0 86 117" style="enable-background:new 0 0 86 117;" xml:space="preserve">
<style type="text/css">
	.st0{fill:#363636;}
</style>
<g>
	<path class="st0" d="M69.5,93.8V14.3c0-1.8-1.4-3.2-3.2-3.2H19.9c-1.8,0-3.2,1.4-3.2,3.2v79.5c0,1.8,1.4,3.2,3.2,3.2h46.4
		C68,97,69.5,95.6,69.5,93.8z M36.2,19.4v-0.2c0-1.8,1.4-3.2,3.2-3.2h7.3c1.8,0,3.2,1.4,3.2,3.2v0.2H36.2z M21.1,80.6V24.3h44v56.3
		H21.1z M42.4,93.5c-1.7-0.3-3.2-1.7-3.4-3.4c-0.4-2.8,1.9-5.2,4.7-4.8c1.7,0.3,3.2,1.7,3.4,3.4C47.6,91.5,45.2,93.9,42.4,93.5z"/>
</g>
</svg>
